# xmcd CD database file
#
# Track frame offsets:
#	150
#	18605
#	40705
#	54580
#	75157
#	101972
#	125672
#	155595
#	173242
#	190377
#	215432
#
# Disc length: 3078 seconds
#
# Revision: 0
# Processed by: cddbd v1.5.1PL0 Copyright (c) Steve Scherf et al.
# Submitted via: CDex 1.51
#
DISCID=930c040b
DTITLE=Tuck and Patti - Taking the Long Way Home
DYEAR=1900
DGENRE=Jazz
TTITLE0=Taking the Long Way Home
TTITLE1=Ready to Love
TTITLE2=Thank You
TTITLE3=Take This Feeling
TTITLE4=Song for the Souls
TTITLE5=Lifeline
TTITLE6=You Ain't Seen Nothing Yet
TTITLE7=Path to Peace
TTITLE8=Early Morning Music Box
TTITLE9=This Light This Life
TTITLE10=Tears In Heaven
EXTD=
EXTT0=
EXTT1=
EXTT2=
EXTT3=
EXTT4=
EXTT5=
EXTT6=
EXTT7=
EXTT8=
EXTT9=
EXTT10=
PLAYORDER=
